<svg width="234" height="32" viewBox="0 0 234 32" fill="none" xmlns="http://www.w3.org/2000/svg">
<g filter="url(#filter0_dd)">
<path d="M22.248 23H17.8535L9.29883 8.9668V23H4.9043V1.67188H9.29883L17.8682 15.7344V1.67188H22.248V23ZM34.1754 23H29.9273V7.15039H34.1754V23ZM29.6783 3.04883C29.6783 2.41406 29.8883 1.8916 30.3082 1.48145C30.7379 1.07129 31.3189 0.866211 32.0514 0.866211C32.774 0.866211 33.3502 1.07129 33.7799 1.48145C34.2096 1.8916 34.4244 2.41406 34.4244 3.04883C34.4244 3.69336 34.2047 4.2207 33.7652 4.63086C33.3355 5.04102 32.7643 5.24609 32.0514 5.24609C31.3385 5.24609 30.7623 5.04102 30.3229 4.63086C29.8932 4.2207 29.6783 3.69336 29.6783 3.04883ZM46.6447 3.25391V7.15039H49.3547V10.2559H46.6447V18.166C46.6447 18.752 46.757 19.1719 46.9816 19.4258C47.2062 19.6797 47.6359 19.8066 48.2707 19.8066C48.7395 19.8066 49.1545 19.7725 49.5158 19.7041V22.9121C48.6857 23.166 47.8312 23.293 46.9523 23.293C43.9836 23.293 42.4699 21.7939 42.4113 18.7959V10.2559H40.0969V7.15039H42.4113V3.25391H46.6447ZM60.0809 23H55.8328V7.15039H60.0809V23ZM55.5838 3.04883C55.5838 2.41406 55.7938 1.8916 56.2137 1.48145C56.6434 1.07129 57.2244 0.866211 57.9568 0.866211C58.6795 0.866211 59.2557 1.07129 59.6854 1.48145C60.115 1.8916 60.3299 2.41406 60.3299 3.04883C60.3299 3.69336 60.1102 4.2207 59.6707 4.63086C59.241 5.04102 58.6697 5.24609 57.9568 5.24609C57.2439 5.24609 56.6678 5.04102 56.2283 4.63086C55.7986 4.2207 55.5838 3.69336 55.5838 3.04883ZM76.0658 18.6201C76.0658 18.1025 75.807 17.6973 75.2895 17.4043C74.7816 17.1016 73.9613 16.833 72.8285 16.5986C69.059 15.8076 67.1742 14.2061 67.1742 11.7939C67.1742 10.3877 67.7553 9.21582 68.9174 8.27832C70.0893 7.33105 71.6176 6.85742 73.5023 6.85742C75.5141 6.85742 77.1205 7.33105 78.3217 8.27832C79.5326 9.22559 80.1381 10.4561 80.1381 11.9697H75.9047C75.9047 11.3643 75.7094 10.8662 75.3187 10.4756C74.9281 10.0752 74.3178 9.875 73.4877 9.875C72.7748 9.875 72.223 10.0361 71.8324 10.3584C71.4418 10.6807 71.2465 11.0908 71.2465 11.5889C71.2465 12.0576 71.4662 12.4385 71.9057 12.7314C72.3549 13.0146 73.1068 13.2637 74.1615 13.4785C75.2162 13.6836 76.1049 13.918 76.8275 14.1816C79.0639 15.002 80.182 16.4229 80.182 18.4443C80.182 19.8896 79.5619 21.0615 78.3217 21.96C77.0814 22.8486 75.4799 23.293 73.517 23.293C72.1889 23.293 71.0072 23.0586 69.9721 22.5898C68.9467 22.1113 68.141 21.4619 67.5551 20.6416C66.9691 19.8115 66.6762 18.918 66.6762 17.9609H70.6898C70.7289 18.7129 71.0072 19.2891 71.5248 19.6895C72.0424 20.0898 72.7357 20.29 73.6049 20.29C74.4154 20.29 75.0258 20.1387 75.4359 19.8359C75.8559 19.5234 76.0658 19.1182 76.0658 18.6201ZM90.9521 8.87891C92.0752 7.53125 93.4863 6.85742 95.1855 6.85742C98.623 6.85742 100.366 8.85449 100.415 12.8486V23H96.1816V12.9658C96.1816 12.0576 95.9863 11.3887 95.5957 10.959C95.2051 10.5195 94.5557 10.2998 93.6475 10.2998C92.4072 10.2998 91.5088 10.7783 90.9521 11.7354V23H86.7188V0.5H90.9521V8.87891Z" fill="black"/>
<path d="M123.552 15.4854V23H119.157V1.67188H127.478C129.079 1.67188 130.486 1.96484 131.696 2.55078C132.917 3.13672 133.855 3.97168 134.509 5.05566C135.163 6.12988 135.49 7.35547 135.49 8.73242C135.49 10.8223 134.773 12.4727 133.337 13.6836C131.911 14.8848 129.934 15.4854 127.404 15.4854H123.552ZM123.552 11.9258H127.478C128.64 11.9258 129.524 11.6523 130.129 11.1055C130.744 10.5586 131.052 9.77734 131.052 8.76172C131.052 7.7168 130.744 6.87207 130.129 6.22754C129.514 5.58301 128.664 5.25098 127.58 5.23145H123.552V11.9258ZM141.28 14.9287C141.28 13.3564 141.583 11.9551 142.188 10.7246C142.794 9.49414 143.663 8.54199 144.796 7.86816C145.938 7.19434 147.262 6.85742 148.765 6.85742C150.904 6.85742 152.647 7.51172 153.995 8.82031C155.352 10.1289 156.109 11.9062 156.265 14.1523L156.295 15.2363C156.295 17.668 155.616 19.6211 154.259 21.0957C152.901 22.5605 151.08 23.293 148.795 23.293C146.51 23.293 144.683 22.5605 143.316 21.0957C141.959 19.6309 141.28 17.6387 141.28 15.1191V14.9287ZM145.513 15.2363C145.513 16.7402 145.797 17.8926 146.363 18.6934C146.929 19.4844 147.74 19.8799 148.795 19.8799C149.82 19.8799 150.621 19.4893 151.197 18.708C151.773 17.917 152.061 16.6572 152.061 14.9287C152.061 13.4541 151.773 12.3115 151.197 11.501C150.621 10.6904 149.81 10.2852 148.765 10.2852C147.73 10.2852 146.929 10.6904 146.363 11.501C145.797 12.3018 145.513 13.5469 145.513 15.2363ZM162.143 14.9287C162.143 13.3564 162.446 11.9551 163.051 10.7246C163.657 9.49414 164.526 8.54199 165.659 7.86816C166.801 7.19434 168.124 6.85742 169.628 6.85742C171.767 6.85742 173.51 7.51172 174.858 8.82031C176.215 10.1289 176.972 11.9062 177.128 14.1523L177.158 15.2363C177.158 17.668 176.479 19.6211 175.121 21.0957C173.764 22.5605 171.943 23.293 169.658 23.293C167.372 23.293 165.546 22.5605 164.179 21.0957C162.822 19.6309 162.143 17.6387 162.143 15.1191V14.9287ZM166.376 15.2363C166.376 16.7402 166.66 17.8926 167.226 18.6934C167.792 19.4844 168.603 19.8799 169.658 19.8799C170.683 19.8799 171.484 19.4893 172.06 18.708C172.636 17.917 172.924 16.6572 172.924 14.9287C172.924 13.4541 172.636 12.3115 172.06 11.501C171.484 10.6904 170.673 10.2852 169.628 10.2852C168.593 10.2852 167.792 10.6904 167.226 11.501C166.66 12.3018 166.376 13.5469 166.376 15.2363ZM187.562 7.15039L187.693 8.98145C188.826 7.56543 190.345 6.85742 192.249 6.85742C193.929 6.85742 195.179 7.35059 195.999 8.33691C196.819 9.32324 197.239 10.7979 197.259 12.7607V23H193.025V12.8633C193.025 11.9648 192.83 11.3154 192.439 10.915C192.049 10.5049 191.399 10.2998 190.491 10.2998C189.3 10.2998 188.406 10.8076 187.811 11.8232V23H183.577V7.15039H187.562ZM208.849 23H204.601V7.15039H208.849V23ZM204.352 3.04883C204.352 2.41406 204.562 1.8916 204.982 1.48145C205.412 1.07129 205.993 0.866211 206.725 0.866211C207.448 0.866211 208.024 1.07129 208.454 1.48145C208.883 1.8916 209.098 2.41406 209.098 3.04883C209.098 3.69336 208.879 4.2207 208.439 4.63086C208.009 5.04102 207.438 5.24609 206.725 5.24609C206.012 5.24609 205.436 5.04102 204.997 4.63086C204.567 4.2207 204.352 3.69336 204.352 3.04883ZM225.435 23C225.239 22.6191 225.098 22.1455 225.01 21.5791C223.985 22.7217 222.652 23.293 221.011 23.293C219.458 23.293 218.169 22.8438 217.144 21.9453C216.128 21.0469 215.62 19.9141 215.62 18.5469C215.62 16.8672 216.24 15.5781 217.481 14.6797C218.731 13.7812 220.532 13.3271 222.886 13.3174H224.834V12.4092C224.834 11.6768 224.644 11.0908 224.263 10.6514C223.892 10.2119 223.301 9.99219 222.49 9.99219C221.778 9.99219 221.216 10.1631 220.806 10.5049C220.405 10.8467 220.205 11.3154 220.205 11.9111H215.972C215.972 10.9932 216.255 10.1436 216.821 9.3623C217.388 8.58105 218.189 7.9707 219.224 7.53125C220.259 7.08203 221.421 6.85742 222.71 6.85742C224.663 6.85742 226.211 7.35059 227.354 8.33691C228.506 9.31348 229.082 10.6904 229.082 12.4678V19.3379C229.092 20.8418 229.302 21.9795 229.712 22.751V23H225.435ZM221.934 20.0557C222.559 20.0557 223.135 19.9189 223.662 19.6455C224.19 19.3623 224.58 18.9863 224.834 18.5176V15.793H223.252C221.133 15.793 220.005 16.5254 219.868 17.9902L219.854 18.2393C219.854 18.7666 220.039 19.2012 220.41 19.543C220.781 19.8848 221.289 20.0557 221.934 20.0557Z" fill="#F05656"/>
</g>
<defs>
<filter id="filter0_dd" x="0.904297" y="0.5" width="232.808" height="30.793" filterUnits="userSpaceOnUse" color-interpolation-filters="sRGB">
<feFlood flood-opacity="0" result="BackgroundImageFix"/>
<feColorMatrix in="SourceAlpha" type="matrix" values="0 0 0 0 0 0 0 0 0 0 0 0 0 0 0 0 0 0 127 0"/>
<feOffset dy="4"/>
<feGaussianBlur stdDeviation="2"/>
<feColorMatrix type="matrix" values="0 0 0 0 0 0 0 0 0 0 0 0 0 0 0 0 0 0 0.25 0"/>
<feBlend mode="normal" in2="BackgroundImageFix" result="effect1_dropShadow"/>
<feColorMatrix in="SourceAlpha" type="matrix" values="0 0 0 0 0 0 0 0 0 0 0 0 0 0 0 0 0 0 127 0"/>
<feOffset dy="4"/>
<feGaussianBlur stdDeviation="2"/>
<feColorMatrix type="matrix" values="0 0 0 0 0 0 0 0 0 0 0 0 0 0 0 0 0 0 0.25 0"/>
<feBlend mode="normal" in2="effect1_dropShadow" result="effect2_dropShadow"/>
<feBlend mode="normal" in="SourceGraphic" in2="effect2_dropShadow" result="shape"/>
</filter>
</defs>
</svg>
